# Blender v2.79 (sub 0) OBJ File: 'Stadium.blend'
# www.blender.org
mtllib Stadium_Floor.mtl
o Cylinder
v -5.962094 0.554771 -5.338998
v -5.432225 0.554771 -5.453619
v -4.900544 0.554771 -5.373303
v -4.387483 0.554771 -5.101133
v -3.912759 0.554771 -4.647569
v -3.494615 0.554771 -4.030042
v -3.149120 0.554771 -3.272281
v -2.889551 0.554771 -2.403409
v -2.725883 0.554771 -1.456815
v -2.664407 0.554771 -0.468876
v -2.707484 0.554771 0.522442
v -2.853459 0.554771 1.479043
v -3.096722 0.554771 2.364165
v -3.427926 0.554771 3.143794
v -3.834341 0.554771 3.787970
v -4.300350 0.554771 4.271935
v -4.808043 0.554771 4.577095
v -5.337913 0.554771 4.691716
v -5.869594 0.554771 4.611400
v -6.382655 0.554771 4.339229
v -6.857379 0.554771 3.885663
v -7.275523 0.554771 3.268134
v -7.621018 0.554771 2.510374
v -7.880587 0.554771 1.641500
v -8.044254 0.554771 0.694906
v -8.105730 0.554771 -0.293034
v -8.062653 0.554771 -1.284352
v -7.916676 0.554771 -2.240954
v -7.673412 0.554771 -3.126075
v -7.342209 0.554771 -3.905704
v -6.935793 0.554771 -4.549878
v -6.469784 0.554771 -5.033843
vn 0.0000 1.0000 0.0000
usemtl None
s off
f 2//1 1//1 32//1 31//1 30//1 29//1 28//1 27//1 26//1 25//1 24//1 23//1 22//1 21//1 20//1 19//1 18//1 17//1 16//1 15//1 14//1 13//1 12//1 11//1 10//1 9//1 8//1 7//1 6//1 5//1 4//1 3//1
l 2 18
o Torus.001_Torus.002
v -1.051672 0.461152 -3.698401
v -3.087304 1.046646 -1.437148
v -3.087304 0.186580 -1.437147
v -1.695557 0.461152 -4.285392
v -3.294943 1.046646 -1.626439
v -3.294943 0.186580 -1.626439
v -2.430158 0.772074 -4.721565
v -3.531836 1.046646 -1.767095
v -3.531836 0.497502 -1.767095
v -3.227249 0.772074 -4.990160
v -3.788879 1.046646 -1.853711
v -3.788879 0.497502 -1.853711
v -4.056196 0.772074 -5.080853
v -4.056196 1.046646 -1.882957
v -4.056196 0.497502 -1.882957
v -4.885143 0.772074 -4.990160
v -4.323513 1.046646 -1.853711
v -4.323513 0.497502 -1.853711
v -5.682234 0.772074 -4.721565
v -4.580557 1.046646 -1.767095
v -4.580557 0.497502 -1.767095
v -6.416835 0.772074 -4.285392
v -4.817450 1.046646 -1.626439
v -4.817450 0.497502 -1.626439
v -7.060721 0.772074 -3.698400
v -5.025089 1.046646 -1.437147
v -5.025089 0.497502 -1.437147
v -7.589143 0.772074 -2.983151
v -5.195493 1.046646 -1.206496
v -5.195493 0.497502 -1.206496
v -7.981796 0.772074 -2.167128
v -5.322115 1.046646 -0.943346
v -5.322115 0.497502 -0.943346
v -8.223592 0.772074 -1.281691
v -5.400088 1.046646 -0.657812
v -5.400088 0.497502 -0.657812
v -8.305235 0.772074 -0.360867
v -5.426417 1.046646 -0.360867
v -5.426417 0.497502 -0.360867
v -8.223592 0.772074 0.559956
v -5.400088 1.046646 -0.063922
v -5.400088 0.497502 -0.063922
v -7.981797 0.772074 1.445392
v -5.322116 1.046646 0.221611
v -5.322116 0.497502 0.221611
v -7.589143 0.772074 2.261417
v -5.195493 1.046646 0.484761
v -5.195493 0.497502 0.484761
v -7.060721 0.772074 2.976666
v -5.025089 1.046646 0.715413
v -5.025089 0.497502 0.715413
v -6.416838 0.772074 3.563656
v -4.817451 1.046646 0.904704
v -4.817451 0.497502 0.904704
v -5.682234 0.772074 3.999831
v -4.580557 1.046646 1.045361
v -4.580557 0.497502 1.045361
v -4.885144 0.772074 4.268425
v -4.323514 1.046646 1.131977
v -4.323514 0.497502 1.131977
v -4.056196 0.772074 4.359119
v -4.056196 1.046646 1.161223
v -4.056196 0.497502 1.161223
v -3.227251 0.772074 4.268425
v -3.788880 1.046646 1.131977
v -3.788880 0.497502 1.131977
v -2.430158 0.772074 3.999830
v -3.531836 1.046646 1.045361
v -3.531836 0.497502 1.045361
v -1.695557 0.548345 3.519122
v -3.294942 1.046646 0.904705
v -3.294942 0.273773 0.860168
v -1.051673 0.548345 2.932131
v -3.087305 1.046646 0.715414
v -3.087305 0.273773 0.670877
vn 0.1273 0.9820 -0.1397
vn -0.6737 0.0000 0.7390
vn 0.0606 -0.9960 -0.0664
vn 0.3045 0.9525 0.0006
vn -0.5105 0.0000 0.8599
vn -0.3963 -0.8755 -0.2764
vn 0.0277 0.9962 -0.0822
vn -0.3193 0.0000 0.9476
vn 0.0094 0.9963 -0.0855
vn -0.1088 0.0000 0.9941
vn -0.0094 0.9963 -0.0855
vn 0.1088 0.0000 0.9941
vn -0.0277 0.9962 -0.0822
vn 0.3193 0.0000 0.9476
vn -0.0450 0.9961 -0.0758
vn 0.5105 0.0000 0.8599
vn -0.0606 0.9960 -0.0664
vn 0.6737 0.0000 0.7390
vn -0.0738 0.9958 -0.0545
vn 0.8043 0.0000 0.5942
vn -0.0842 0.9956 -0.0405
vn 0.9011 0.0000 0.4336
vn -0.0913 0.9955 -0.0249
vn 0.9647 0.0000 0.2634
vn -0.0949 0.9954 -0.0084
vn 0.9961 -0.0000 0.0883
vn -0.0949 0.9954 0.0084
vn 0.9961 0.0000 -0.0883
vn -0.0913 0.9955 0.0249
vn 0.9647 0.0000 -0.2634
vn -0.0842 0.9956 0.0405
vn 0.9011 0.0000 -0.4336
vn -0.0738 0.9958 0.0545
vn 0.8043 0.0000 -0.5942
vn -0.0606 0.9960 0.0664
vn 0.6737 0.0000 -0.7390
vn -0.0450 0.9961 0.0758
vn 0.5105 0.0000 -0.8599
vn -0.0277 0.9962 0.0822
vn 0.3193 0.0000 -0.9476
vn -0.0094 0.9963 0.0855
vn 0.1088 0.0000 -0.9941
vn 0.0094 0.9963 0.0855
vn -0.1088 0.0000 -0.9941
vn 0.0277 0.9962 0.0822
vn -0.3193 0.0000 -0.9476
vn 0.2366 0.9714 0.0201
vn -0.5575 0.0280 -0.8297
vn -0.2765 -0.9344 0.2245
vn 0.1100 0.9866 0.1207
vn -0.6731 0.0425 -0.7383
vn 0.0606 -0.9960 0.0664
vn 0.7403 0.0387 -0.6711
vn 0.7432 0.0000 0.6691
usemtl None
s off
f 33//2 36//2 37//2 34//2
f 34//3 37//3 38//3 35//3
f 35//4 38//4 36//4 33//4
f 36//5 39//5 40//5 37//5
f 37//6 40//6 41//6 38//6
f 38//7 41//7 39//7 36//7
f 39//8 42//8 43//8 40//8
f 40//9 43//9 44//9 41//9
f 42//10 45//10 46//10 43//10
f 43//11 46//11 47//11 44//11
f 45//12 48//12 49//12 46//12
f 46//13 49//13 50//13 47//13
f 48//14 51//14 52//14 49//14
f 49//15 52//15 53//15 50//15
f 51//16 54//16 55//16 52//16
f 52//17 55//17 56//17 53//17
f 54//18 57//18 58//18 55//18
f 55//19 58//19 59//19 56//19
f 57//20 60//20 61//20 58//20
f 58//21 61//21 62//21 59//21
f 60//22 63//22 64//22 61//22
f 61//23 64//23 65//23 62//23
f 63//24 66//24 67//24 64//24
f 64//25 67//25 68//25 65//25
f 66//26 69//26 70//26 67//26
f 67//27 70//27 71//27 68//27
f 69//28 72//28 73//28 70//28
f 70//29 73//29 74//29 71//29
f 72//30 75//30 76//30 73//30
f 73//31 76//31 77//31 74//31
f 75//32 78//32 79//32 76//32
f 76//33 79//33 80//33 77//33
f 78//34 81//34 82//34 79//34
f 79//35 82//35 83//35 80//35
f 81//36 84//36 85//36 82//36
f 82//37 85//37 86//37 83//37
f 84//38 87//38 88//38 85//38
f 85//39 88//39 89//39 86//39
f 87//40 90//40 91//40 88//40
f 88//41 91//41 92//41 89//41
f 90//42 93//42 94//42 91//42
f 91//43 94//43 95//43 92//43
f 93//44 96//44 97//44 94//44
f 94//45 97//45 98//45 95//45
f 96//46 99//46 100//46 97//46
f 97//47 100//47 101//47 98//47
f 99//48 102//48 103//48 100//48
f 100//49 103//49 104//49 101//49
f 101//50 104//50 102//50 99//50
f 102//51 105//51 106//51 103//51
f 103//52 106//52 107//52 104//52
f 104//53 107//53 105//53 102//53
f 106//54 105//54 107//54
f 34//55 35//55 33//55
o Torus.002_Torus.003
v -0.959154 0.663802 -4.797761
v -3.030288 1.332486 -1.707839
v -3.030288 0.489581 -1.707839
v -1.743091 0.663803 -5.581501
v -3.410943 1.320003 -1.988671
v -3.410943 0.502065 -1.988671
v -2.550932 1.158265 -6.127028
v -3.694870 1.322070 -2.181143
v -3.694870 0.994460 -2.181143
v -3.452587 1.158265 -6.469938
v -4.016717 1.321050 -2.300462
v -4.016717 0.995480 -2.300462
v -4.365685 1.158265 -6.583089
v -4.365685 1.320357 -2.341880
v -4.365685 0.996173 -2.341880
v -5.278782 1.158265 -6.469938
v -4.714653 1.321050 -2.300462
v -4.714653 0.995480 -2.300462
v -6.180438 1.158265 -6.127029
v -5.036500 1.322070 -2.181143
v -5.036500 0.994460 -2.181143
v -7.031946 1.158265 -5.557777
v -5.319832 1.322519 -1.993703
v -5.319832 0.994011 -1.993703
v -7.787032 1.158265 -4.783446
v -5.561683 1.322546 -1.746505
v -5.561684 0.993984 -1.746505
v -8.409519 1.158265 -3.836055
v -5.757930 1.322416 -1.447909
v -5.757930 0.994114 -1.447909
v -8.872807 1.158265 -2.753683
v -5.903170 1.322273 -1.108266
v -5.903170 0.994257 -1.108266
v -9.158213 1.158265 -1.578849
v -5.992514 1.322178 -0.740017
v -5.992514 0.994352 -0.740017
v -9.254581 1.158265 -0.357084
v -6.022679 1.322147 -0.357084
v -6.022679 0.994383 -0.357084
v -9.158213 1.158265 0.864680
v -5.992514 1.322178 0.025848
v -5.992514 0.994352 0.025848
v -8.872808 1.158265 2.039512
v -5.903170 1.322273 0.394096
v -5.903171 0.994256 0.394096
v -8.409519 1.158265 3.121886
v -5.757930 1.322416 0.733741
v -5.757930 0.994114 0.733741
v -7.787032 1.158265 4.069279
v -5.561683 1.322546 1.032337
v -5.561683 0.993984 1.032337
v -7.031950 1.158265 4.843607
v -5.319833 1.322519 1.279534
v -5.319833 0.994011 1.279534
v -6.180439 1.158265 5.412859
v -5.036500 1.322070 1.466974
v -5.036500 0.994460 1.466974
v -5.278784 1.158265 5.755768
v -4.714653 1.321050 1.586294
v -4.714653 0.995480 1.586294
v -4.365685 1.158265 5.868921
v -4.365685 1.320357 1.627712
v -4.365685 0.996173 1.627712
v -3.452589 1.158265 5.755769
v -4.016718 1.321050 1.586295
v -4.016718 0.995480 1.586294
v -2.550932 1.158265 5.412859
v -3.694870 1.322070 1.466974
v -3.694870 0.994460 1.466974
v -1.743092 0.672024 4.867333
v -3.410943 1.320003 1.274503
v -3.410943 0.510286 1.274503
v -0.959157 0.672024 4.083596
v -3.030289 1.332486 0.993672
v -3.030289 0.497802 0.993672
vn 0.1111 0.9849 -0.1331
vn -0.5937 0.0000 0.8047
vn 0.0233 -0.9990 -0.0372
vn 0.3884 0.9204 0.0447
vn -0.5611 0.0000 0.8277
vn -0.5557 -0.7955 -0.2416
vn 0.0133 0.9992 -0.0374
vn -0.3476 0.0000 0.9376
vn 0.0133 -0.9992 -0.0374
vn 0.0041 0.9993 -0.0383
vn -0.1179 0.0000 0.9930
vn -0.0041 0.9993 -0.0383
vn 0.1179 0.0000 0.9930
vn -0.0133 0.9992 -0.0374
vn 0.3476 0.0000 0.9376
vn -0.0229 0.9991 -0.0349
vn 0.5517 0.0000 0.8340
vn -0.0316 0.9990 -0.0309
vn 0.7148 0.0000 0.6993
vn -0.0389 0.9989 -0.0255
vn 0.8357 -0.0000 0.5492
vn -0.0447 0.9988 -0.0190
vn 0.9195 0.0000 0.3932
vn -0.0486 0.9987 -0.0117
vn 0.9718 0.0000 0.2358
vn -0.0506 0.9987 -0.0040
vn 0.9969 0.0000 0.0785
vn -0.0506 0.9987 0.0040
vn 0.9969 0.0000 -0.0785
vn -0.0486 0.9987 0.0117
vn 0.9718 -0.0000 -0.2358
vn -0.0447 0.9988 0.0190
vn 0.9195 0.0000 -0.3932
vn -0.0389 0.9989 0.0255
vn 0.8357 0.0000 -0.5492
vn -0.0316 0.9990 0.0309
vn 0.7148 0.0000 -0.6993
vn -0.0229 0.9991 0.0349
vn 0.5517 0.0000 -0.8340
vn -0.0133 0.9992 0.0374
vn 0.3476 0.0000 -0.9376
vn -0.0041 0.9993 0.0383
vn 0.1179 -0.0000 -0.9930
vn 0.0041 0.9993 0.0383
vn -0.1179 0.0000 -0.9930
vn 0.0133 0.9992 0.0374
vn -0.3476 0.0000 -0.9376
vn 0.3832 0.9226 -0.0436
vn -0.5611 -0.0000 -0.8277
vn -0.5495 -0.8004 0.2395
vn 0.1097 0.9852 0.1315
vn -0.5937 -0.0000 -0.8047
vn 0.0233 -0.9990 0.0372
vn 0.8307 0.0000 0.5568
vn 0.8307 0.0000 -0.5568
usemtl None
s off
f 108//56 111//56 112//56 109//56
f 109//57 112//57 113//57 110//57
f 110//58 113//58 111//58 108//58
f 111//59 114//59 115//59 112//59
f 112//60 115//60 116//60 113//60
f 113//61 116//61 114//61 111//61
f 114//62 117//62 118//62 115//62
f 115//63 118//63 119//63 116//63
f 116//64 119//64 117//64 114//64
f 117//65 120//65 121//65 118//65
f 118//66 121//66 122//66 119//66
f 120//67 123//67 124//67 121//67
f 121//68 124//68 125//68 122//68
f 123//69 126//69 127//69 124//69
f 124//70 127//70 128//70 125//70
f 126//71 129//71 130//71 127//71
f 127//72 130//72 131//72 128//72
f 129//73 132//73 133//73 130//73
f 130//74 133//74 134//74 131//74
f 132//75 135//75 136//75 133//75
f 133//76 136//76 137//76 134//76
f 135//77 138//77 139//77 136//77
f 136//78 139//78 140//78 137//78
f 138//79 141//79 142//79 139//79
f 139//80 142//80 143//80 140//80
f 141//81 144//81 145//81 142//81
f 142//82 145//82 146//82 143//82
f 144//83 147//83 148//83 145//83
f 145//84 148//84 149//84 146//84
f 147//85 150//85 151//85 148//85
f 148//86 151//86 152//86 149//86
f 150//87 153//87 154//87 151//87
f 151//88 154//88 155//88 152//88
f 153//89 156//89 157//89 154//89
f 154//90 157//90 158//90 155//90
f 156//91 159//91 160//91 157//91
f 157//92 160//92 161//92 158//92
f 159//93 162//93 163//93 160//93
f 160//94 163//94 164//94 161//94
f 162//95 165//95 166//95 163//95
f 163//96 166//96 167//96 164//96
f 165//97 168//97 169//97 166//97
f 166//98 169//98 170//98 167//98
f 168//99 171//99 172//99 169//99
f 169//100 172//100 173//100 170//100
f 171//101 174//101 175//101 172//101
f 172//102 175//102 176//102 173//102
f 174//103 177//103 178//103 175//103
f 175//104 178//104 179//104 176//104
f 176//105 179//105 177//105 174//105
f 177//106 180//106 181//106 178//106
f 178//107 181//107 182//107 179//107
f 179//108 182//108 180//108 177//108
f 109//109 110//109 108//109
f 181//110 180//110 182//110
o Cylinder.001
v -2.248773 0.647684 -8.830494
v -2.002488 0.647684 -9.015148
v -1.755360 0.647684 -8.885759
v -1.516887 0.647684 -8.447298
v -1.296233 0.647684 -7.716614
v -1.101878 0.647684 -6.721789
v -0.941290 -0.275948 -5.501049
v -0.941290 0.647684 -5.501049
v -0.820642 -0.275948 -4.101311
v -0.820642 0.647684 -4.101311
v -0.744568 -0.275948 -2.576365
v -0.744568 0.647684 -2.576365
v -0.715994 -0.275948 -0.984812
v -0.715994 0.647684 -0.984812
v -0.736016 -0.275948 0.612184
v -0.736016 0.647684 0.612184
v -0.803866 -0.275948 2.153252
v -0.803866 0.647684 2.153252
v -0.916936 -0.275948 3.579169
v -0.916936 0.647684 3.579169
v -1.070881 -0.275948 4.835137
v -1.070881 0.647684 4.835137
v -1.259784 0.647684 5.872894
v -1.476387 0.647684 6.652554
v -1.712366 0.647684 7.144159
v -1.958651 0.647684 7.328813
v -2.205779 0.647684 7.199425
v -2.444252 0.647684 6.760962
v -2.664906 0.647684 6.030276
v -2.859261 0.647684 5.035447
v -3.019849 0.647684 3.814708
v -3.140497 0.647684 2.414968
v -3.216571 0.647684 0.890020
v -3.245145 0.647684 -0.701534
v -3.225123 0.647684 -2.298530
v -3.157272 0.647684 -3.839599
v -3.044202 0.647684 -5.265514
v -2.890257 0.647684 -6.521482
v -2.701353 0.647684 -7.559236
v -2.484750 0.647684 -8.338896
vn 0.9963 0.0000 -0.0859
vn 0.9988 0.0000 -0.0498
vn 0.9998 0.0000 -0.0180
vn 0.9999 0.0000 0.0125
vn 0.9990 0.0000 0.0440
vn 0.9969 0.0000 0.0790
vn 0.9926 0.0000 0.1217
vn 0.0000 1.0000 0.0000
usemtl None
s off
f 189//111 190//111 192//111 191//111
f 191//112 192//112 194//112 193//112
f 193//113 194//113 196//113 195//113
f 195//114 196//114 198//114 197//114
f 197//115 198//115 200//115 199//115
f 199//116 200//116 202//116 201//116
f 201//117 202//117 204//117 203//117
f 184//118 183//118 222//118 221//118 220//118 219//118 218//118 217//118 216//118 215//118 214//118 213//118 212//118 211//118 210//118 209//118 208//118 207//118 206//118 205//118 204//118 202//118 200//118 198//118 196//118 194//118 192//118 190//118 188//118 187//118 186//118 185//118
l 184 208
