# Blender v2.79 (sub 0) OBJ File: 'Stadium.blend'
# www.blender.org
mtllib Stadium_Walls.mtl
o Cube.001_Cube.003
v -7.879846 9.512490 -6.081064
v -7.879846 9.512490 5.170539
v -8.043644 -1.738050 5.170537
v -8.056828 -1.715871 -6.092607
vn 0.9999 -0.0152 -0.0006
usemtl Material.003
s off
f 1//1 2//1 3//1 4//1
o Cube.003_Cube.005
v 3.153335 9.319874 -4.969741
v -8.242433 9.319874 -4.989985
v -8.242152 -1.512190 -5.147690
v 3.165326 -1.490846 -5.139478
vn -0.0012 -0.0151 0.9999
usemtl Material.005
s off
f 5//2 6//2 7//2 8//2
o Cube.004_Cube.006
v 3.353028 9.494369 4.684129
v -8.398136 9.494362 4.663254
v -8.397842 -1.675509 4.500630
v 3.353319 -1.675508 4.521505
vn 0.0018 0.0146 -0.9999
usemtl Material.006
s off
f 9//3 12//3 11//3 10//3
